<svg viewBox="0 0 24 24" xmlns="http://www.w3.org/2000/svg" role="img" aria-hidden="true"><path fill="currentColor" d="M12 .5C5.65.5.5 5.65.5 12c0 5.08 3.29 9.38 7.86 10.9.57.1.78-.25.78-.55 0-.27-.01-.98-.01-1.92-3.2.7-3.88-1.45-3.88-1.45-.52-1.32-1.27-1.67-1.27-1.67-1.04-.71.08-.7.08-.7 1.15.08 1.75 1.18 1.75 1.18 1.02 1.75 2.68 1.25 3.33.96.1-.75.4-1.25.73-1.54-2.55-.29-5.23-1.28-5.23-5.69 0-1.26.45-2.28 1.18-3.08-.12-.29-.51-1.46.11-3.04 0 0 .97-.31 3.18 1.18.92-.26 1.9-.39 2.87-.39.98 0 1.96.13 2.88.39 2.2-1.49 3.17-1.18 3.17-1.18.62 1.58.24 2.75.12 3.04.73.8 1.17 1.82 1.17 3.08 0 4.42-2.69 5.39-5.25 5.67.41.35.78 1.04.78 2.1 0 1.52-.01 2.75-.01 3.12 0 .3.2.66.79.55C20.71 21.38 24 17.08 24 12c0-6.35-5.15-11.5-12-11.5z"/></svg>